<svg width="204" height="96" viewBox="0 0 204 96" fill="none" xmlns="http://www.w3.org/2000/svg">
<path d="M93.1903 65V30.0909H106.963C109.599 30.0909 111.849 30.5625 113.713 31.5057C115.588 32.4375 117.014 33.7614 117.991 35.4773C118.98 37.1818 119.474 39.1875 119.474 41.4943C119.474 43.8125 118.974 45.8068 117.974 47.4773C116.974 49.1364 115.526 50.4091 113.628 51.2955C111.741 52.1818 109.457 52.625 106.776 52.625H97.554V46.6932H105.582C106.991 46.6932 108.162 46.5 109.094 46.1136C110.026 45.7273 110.719 45.1477 111.173 44.375C111.639 43.6023 111.872 42.642 111.872 41.4943C111.872 40.3352 111.639 39.358 111.173 38.5625C110.719 37.767 110.02 37.1648 109.077 36.7557C108.145 36.3352 106.969 36.125 105.548 36.125H100.571V65H93.1903ZM112.043 49.1136L120.719 65H112.571L104.082 49.1136H112.043ZM155.491 42.3125H148.026C147.889 41.3466 147.611 40.4886 147.19 39.7386C146.77 38.9773 146.23 38.3295 145.571 37.7955C144.912 37.2614 144.151 36.8523 143.287 36.5682C142.435 36.2841 141.509 36.142 140.509 36.142C138.702 36.142 137.128 36.5909 135.787 37.4886C134.446 38.375 133.406 39.6705 132.668 41.375C131.929 43.0682 131.56 45.125 131.56 47.5455C131.56 50.0341 131.929 52.125 132.668 53.8182C133.418 55.5114 134.463 56.7898 135.804 57.6534C137.145 58.517 138.696 58.9489 140.457 58.9489C141.446 58.9489 142.361 58.8182 143.202 58.5568C144.054 58.2955 144.81 57.9148 145.469 57.4148C146.128 56.9034 146.673 56.2841 147.105 55.5568C147.548 54.8295 147.855 54 148.026 53.0682L155.491 53.1023C155.298 54.7045 154.815 56.25 154.043 57.7386C153.281 59.2159 152.253 60.5398 150.957 61.7102C149.673 62.8693 148.139 63.7898 146.355 64.4716C144.582 65.142 142.577 65.4773 140.338 65.4773C137.224 65.4773 134.44 64.7727 131.986 63.3636C129.543 61.9545 127.611 59.9148 126.19 57.2443C124.781 54.5739 124.077 51.3409 124.077 47.5455C124.077 43.7386 124.793 40.5 126.224 37.8295C127.656 35.1591 129.599 33.125 132.054 31.7273C134.509 30.3182 137.27 29.6136 140.338 29.6136C142.361 29.6136 144.236 29.8977 145.963 30.4659C147.702 31.0341 149.241 31.8636 150.582 32.9545C151.923 34.0341 153.014 35.358 153.855 36.9261C154.707 38.4943 155.253 40.2898 155.491 42.3125ZM191.585 42.3125H184.119C183.983 41.3466 183.705 40.4886 183.284 39.7386C182.864 38.9773 182.324 38.3295 181.665 37.7955C181.006 37.2614 180.244 36.8523 179.381 36.5682C178.528 36.2841 177.602 36.142 176.602 36.142C174.795 36.142 173.222 36.5909 171.881 37.4886C170.54 38.375 169.5 39.6705 168.761 41.375C168.023 43.0682 167.653 45.125 167.653 47.5455C167.653 50.0341 168.023 52.125 168.761 53.8182C169.511 55.5114 170.557 56.7898 171.898 57.6534C173.239 58.517 174.79 58.9489 176.551 58.9489C177.54 58.9489 178.455 58.8182 179.295 58.5568C180.148 58.2955 180.903 57.9148 181.562 57.4148C182.222 56.9034 182.767 56.2841 183.199 55.5568C183.642 54.8295 183.949 54 184.119 53.0682L191.585 53.1023C191.392 54.7045 190.909 56.25 190.136 57.7386C189.375 59.2159 188.347 60.5398 187.051 61.7102C185.767 62.8693 184.233 63.7898 182.449 64.4716C180.676 65.142 178.67 65.4773 176.432 65.4773C173.318 65.4773 170.534 64.7727 168.08 63.3636C165.636 61.9545 163.705 59.9148 162.284 57.2443C160.875 54.5739 160.17 51.3409 160.17 47.5455C160.17 43.7386 160.886 40.5 162.318 37.8295C163.75 35.1591 165.693 33.125 168.148 31.7273C170.602 30.3182 173.364 29.6136 176.432 29.6136C178.455 29.6136 180.33 29.8977 182.057 30.4659C183.795 31.0341 185.335 31.8636 186.676 32.9545C188.017 34.0341 189.108 35.358 189.949 36.9261C190.801 38.4943 191.347 40.2898 191.585 42.3125Z" fill="black"/>
<g clip-path="url(#clip0_1_26)">
<path d="M42 52H32V40H42V30H54V40H64V52H54V62H42V52ZM48 8L16 20V44.36C16 64.56 29.64 83.4 48 88C66.36 83.4 80 64.56 80 44.36V20L48 8Z" fill="#f06292"/>
</g>
<defs>
<clipPath id="clip0_1_26">
<rect width="96" height="96" fill="white"/>
</clipPath>
</defs>
</svg>
